<?xml version="1.0" encoding="utf-8"?>
<!-- Generator: Adobe Illustrator 16.0.4, SVG Export Plug-In . SVG Version: 6.00 Build 0)  -->
<!DOCTYPE svg PUBLIC "-//W3C//DTD SVG 1.1//EN" "http://www.w3.org/Graphics/SVG/1.1/DTD/svg11.dtd">
<svg version="1.1" id="Layer_1" xmlns="http://www.w3.org/2000/svg" xmlns:xlink="http://www.w3.org/1999/xlink" x="0px" y="0px"
	 width="16px" height="16px" viewBox="0 0 16 16" style="enable-background:new 0 0 16 16;" xml:space="preserve">
<style type="text/css">
<![CDATA[
	.st0{fill:#FFFFFF;}
]]>
</style>
<g>
	<path class="st0" d="M11.139,1c-0.324,0.006-0.615,0.25-0.896,0.621c-0.23,0.494-0.436,1.114-0.691,1.864
		c-1.27,3.747-2.791,6.62-4.907,8.185c0.277-0.078,0.619-0.078,0.905,0.232C6.325,12.752,6.954,15.06,7.491,16
		c0.576-0.098,1.529-0.729,2.056-1.343c1.103-1.282,1.846-2.972,3.206-3.363c1.306-0.381,2.032,1.316,3.247,2.071
		C14.033,9.002,12.439,0.975,11.139,1"/>
	<path class="st0" d="M8.891,2.538c-0.592,1.071-1.238,2.241-2.137,2.53C5.565,5.448,4.699,6.938,4.699,6.938l1.534,1.313
		c0.916-1.465,1.769-3.091,2.47-5.167C8.77,2.893,8.832,2.71,8.891,2.538"/>
	<path class="st0" d="M5.465,9.013L3.867,7.594L0,9.367l2.794,2.299C2.794,11.666,4.445,10.601,5.465,9.013"/>
</g>
</svg>
